<?xml version="1.0" encoding="UTF-8"?>
<svg width="779px" height="808px" viewBox="0 0 779 808" version="1.1" xmlns="http://www.w3.org/2000/svg" xmlns:xlink="http://www.w3.org/1999/xlink">
    <!-- Generator: Sketch 59.1 (86144) - https://sketch.com -->
    <title>@illustration</title>
    <desc>Created with Sketch.</desc>
    <g id="Page-1" stroke="none" stroke-width="1" fill="none" fill-rule="evenodd">
        <g id="Desktop-HD" transform="translate(-765.000000, -119.000000)">
            <g id="Image" transform="translate(628.000000, 118.000000)">
                <g id="@illustration">
                    <g>
                        <rect id="bg" fill="#FFFFFF" transform="translate(533.000000, 405.000000) rotate(12.000000) translate(-533.000000, -405.000000) " x="281" y="45" width="504" height="720" rx="5"></rect>
                        <g id="undraw_google_docs_jf93" stroke-width="1" transform="translate(0.000000, 13.000000)">
                            <rect id="Rectangle" fill="#F9F9F9" fill-rule="nonzero" x="361" y="117" width="367" height="472"></rect>
                            <rect id="Rectangle" fill="#3F3D56" fill-rule="nonzero" x="448" y="203" width="187" height="2"></rect>
                            <rect id="Rectangle" fill="#3F3D56" fill-rule="nonzero" x="448" y="217" width="187" height="2"></rect>
                            <rect id="Rectangle" fill="#3F3D56" fill-rule="nonzero" x="448" y="232" width="187" height="2"></rect>
                            <rect id="Rectangle" fill="#B3DBBC" fill-rule="nonzero" x="448" y="313" width="187" height="2"></rect>
                            <rect id="Rectangle" fill="#B3DBBC" fill-rule="nonzero" x="448" y="327" width="187" height="2"></rect>
                            <rect id="Rectangle" fill="#3F3D56" fill-rule="nonzero" x="448" y="342" width="187" height="2"></rect>
                            <rect id="Rectangle" fill="#3F3D56" fill-rule="nonzero" x="448" y="379" width="187" height="2"></rect>
                            <rect id="Rectangle" fill="#3F3D56" fill-rule="nonzero" x="448" y="394" width="187" height="2"></rect>
                            <rect id="Rectangle" fill="#3F3D56" fill-rule="nonzero" x="448" y="409" width="187" height="2"></rect>
                            <rect id="Rectangle" fill="#3F3D56" fill-rule="nonzero" x="448" y="446" width="187" height="2"></rect>
                            <rect id="Rectangle" fill="#B3DBBC" fill-rule="nonzero" x="448" y="461" width="187" height="2"></rect>
                            <rect id="Rectangle" fill="#3F3D56" fill-rule="nonzero" x="448" y="475" width="187" height="2"></rect>
                            <rect id="Rectangle" fill="#3F3D56" fill-rule="nonzero" x="448" y="513" width="187" height="2"></rect>
                            <rect id="Rectangle" fill="#3F3D56" fill-rule="nonzero" x="448" y="527" width="187" height="2"></rect>
                            <rect id="Rectangle" fill="#3F3D56" fill-rule="nonzero" x="448" y="542" width="187" height="2"></rect>
                            <path d="M754,623 L360,623 L360,99 L754,99 L754,623 Z M361.755011,621.244556 L752.244989,621.244556 L752.244989,100.755444 L361.755011,100.755444 L361.755011,621.244556 Z" id="Shape" fill="#3F3D56" fill-rule="nonzero"></path>
                            <path d="M666.339199,140.5 C666.339972,136.39457 668.498138,132.601752 672,130.551557 C667.242309,127.74998 661.190588,128.826235 657.653109,133.103048 C654.11563,137.379861 654.11563,143.620139 657.653109,147.896952 C661.190588,152.173765 667.242309,153.25002 672,150.448443 C668.498138,148.398248 666.339972,144.60543 666.339199,140.5 L666.339199,140.5 Z" id="Path" fill="#3F3D56" fill-rule="nonzero"></path>
                            <path d="M681.339199,140.5 C681.339972,136.39457 683.498138,132.601752 687,130.551557 C682.242309,127.74998 676.190588,128.826235 672.653109,133.103048 C669.11563,137.379861 669.11563,143.620139 672.653109,147.896952 C676.190588,152.173765 682.242309,153.25002 687,150.448443 C683.498138,148.398248 681.339972,144.60543 681.339199,140.5 L681.339199,140.5 Z" id="Path" fill="#B3DBBC" fill-rule="nonzero"></path>
                            <circle id="Oval" fill="#3F3D56" fill-rule="nonzero" cx="696.5" cy="140.5" r="11.5"></circle>
                            <path d="M685.574876,624 L684.630446,623.646156 C684.422914,623.568009 663.767642,615.659053 654.091814,597.725773 C644.415564,579.791658 649.15357,558.198927 649.202558,557.983358 L649.425561,557 L650.36955,557.353835 C650.577083,557.431991 671.231924,565.340938 680.908183,583.274218 C690.584442,601.208333 685.846427,622.801073 685.797439,623.016633 L685.574876,624 Z M655.641216,596.890988 C663.821777,612.053653 680.144226,619.826075 684.279839,621.600422 C685.066138,617.17057 687.532039,599.257069 679.358781,584.109003 C671.186385,568.962661 654.857495,561.178208 650.720166,559.399569 C649.933436,563.831998 647.468397,581.743784 655.641216,596.890988 Z" id="Shape" fill="#3F3D56" fill-rule="nonzero"></path>
                            <path d="M661.902901,592.277723 C679.299869,602.674213 686,623.324511 686,623.324511 C686,623.324511 664.494067,627.118764 647.097099,616.722274 C629.700131,606.325784 623,585.675486 623,585.675486 C623,585.675486 644.505933,581.881242 661.902901,592.277723 Z" id="Path" fill="#B3DBBC" fill-rule="nonzero"></path>
                            <path d="M435,240.000012 C434.99234,274.991307 415.762373,307.149501 384.94047,323.714347 C383.805717,324.330088 382.653389,324.919439 381.483487,325.482402 C355.178738,338.22482 324.476882,338.169682 298.218071,325.332865 C295.983821,324.242084 293.802348,323.06338 291.673653,321.796755 C289.509772,320.530088 287.407466,319.166663 285.366733,317.72407 C258.068314,298.530532 242.839849,266.423084 245.248511,233.139463 C247.657173,199.855842 267.349842,170.275578 297.127335,155.212528 C302.909794,152.273342 308.982656,149.94442 315.247635,148.263455 C318.009661,147.51577 320.8186,146.894166 323.674453,146.398641 C329.066053,145.46361 334.528294,144.99567 340.000368,145 C341.12629,145 342.243415,145.017623 343.36054,145.070401 C344.178593,145.087993 344.996645,145.123178 345.814697,145.175956 C354.366582,145.687106 362.809209,147.359066 370.910433,150.145863 C371.605337,150.383362 372.300242,150.629659 372.98635,150.884751 C375.378934,151.764381 377.718739,152.743702 380.005767,153.822714 C413.551419,169.391946 435.009519,203.017312 435,240.000012 Z" id="Path" fill="#86FFD9" fill-rule="nonzero"></path>
                            <path d="M376.615541,143.657759 C368.024202,123.331512 346.15435,119.4927 346.15435,119.4927 C346.15435,119.4927 325.096895,113.859806 307.511136,140.686218 C291.1198,165.690642 269.982183,189.117572 296.78889,199.098055 L303.869892,184.186545 L304.719369,201.347283 C308.617445,202.161266 312.557025,202.760739 316.520437,203.143013 C346.254264,206.171866 374.283023,211.207986 374.802132,200.433255 C375.492239,186.109796 384.882141,163.215708 376.615541,143.657759 Z" id="Path" fill="#2F2E41" fill-rule="nonzero"></path>
                            <path d="M300,308.868747 L299.291199,314.466728 L297.944477,325 C295.694034,323.918729 293.496751,322.750304 291.352628,321.494722 C289.173066,320.239101 287.055523,318.887563 285,317.457549 L285.21264,312.025241 L285.451861,306 L295.286474,307.94447 L300,308.868747 Z" id="Path" fill="#FFB8B8" fill-rule="nonzero"></path>
                            <path d="M398,315.184961 C393.797672,318.502827 389.321512,321.451933 384.620511,324 L380.085677,308.159114 L379.488533,306.073179 L378,300.862706 L379.601039,300.609601 L395.992211,298 L396.520216,302.494797 L398,315.184961 Z" id="Path" fill="#FFB8B8" fill-rule="nonzero"></path>
                            <circle id="Oval" fill="#FFB8B8" fill-rule="nonzero" cx="346" cy="159" r="26"></circle>
                            <path d="M328.486134,170 C328.486134,170 330.412289,202.259038 324.633825,204.156627 C318.855361,206.054216 354.489231,204.156627 354.489231,204.156627 C354.489231,204.156627 349.673845,184.231929 354.489231,178.539161 C359.304618,172.846393 328.486134,170 328.486134,170 Z" id="Path" fill="#FFB8B8" fill-rule="nonzero"></path>
                            <path d="M354.170728,198.849557 C354.170728,198.849557 329.12195,196.938054 324.304879,198.849557 C319.487808,200.761061 306,210.318579 306,210.318579 L312.743899,270.530978 L367.658536,282 L376.329272,269.575226 L385,251.415933 L381.146343,228.477872 L380.182929,215.097347 L354.170728,198.849557 Z" id="Path" fill="#D0CDE1" fill-rule="nonzero"></path>
                            <path d="M301.441175,214 C301.441175,214 288.823535,216.885713 287.852947,226.504756 C286.88236,236.1238 286.88236,260.171426 287.852947,264.019043 C288.823535,267.866661 287.852947,269.790478 286.88236,270.752383 C285.911772,271.714287 283.970588,269.790478 285.911763,272.676191 C287.852939,275.561904 287.852947,275.561904 286.88236,278.447617 C285.911772,281.33333 283,277.485713 284.941175,282.295235 C286.882351,287.104756 287.852947,288.06667 286.88236,289.028574 C285.911772,289.990478 283,312.114287 283,312.114287 L299.5,315 L316,258.247617 L301.441175,214 Z" id="Path" fill="#D0CDE1" fill-rule="nonzero"></path>
                            <path d="M376.774207,214 C380.516908,214.20681 383.851603,216.408327 385.48388,219.749998 C388.387104,225.5 396.129043,262.874999 395.161293,265.750007 C394.193543,268.625014 392.25806,264.791674 394.193543,270.541671 C396.129026,276.291669 394.193543,275.333336 395.161293,279.166668 C396.129043,283 391.290319,279.166668 395.161293,283 C399.032267,286.833349 400.967741,287.791674 399.032259,289.70834 C397.096776,291.625005 394.193543,287.791674 397.096776,291.625005 C400,295.458337 400,301.208335 400,301.208335 L376.774198,306 L370,252.333327 L376.774207,214 Z" id="Path" fill="#D0CDE1" fill-rule="nonzero"></path>
                            <path d="M379.54841,307.866612 L380.699303,325.523454 C354.426928,338.21091 323.762858,338.15601 297.536364,325.374562 C295.304864,324.288485 293.126076,323.114865 291,321.853703 C291.737977,319.147372 292.484739,316.449799 293.249072,313.804776 C293.793769,311.92173 294.344323,310.067878 294.900734,308.243221 C299.214383,294.168546 303.861878,282.195875 308.219455,277.545189 C308.219455,277.545189 308.219455,267.008889 310.143465,266.04547 C311.068251,265.322946 311.773826,264.358804 312.181686,263.260314 C312.897887,261.678062 313.502619,260.047979 313.991486,258.38191 L310.811158,251.007376 L296.578752,217.970864 C295.737801,216.009403 296.572943,213.734232 298.485192,212.77716 L303.202971,210.421163 C304.168329,209.94342 305.284863,209.868896 306.305488,210.214082 C307.326114,210.559269 308.166674,211.295704 308.641156,212.260417 L330.332397,256.463831 L354.360565,271.799709 L371.211032,264.328833 L371.659089,264.127391 C371.659089,264.127391 384.160764,244.964112 380.312743,235.382472 C378.669867,231.292321 376.860067,225.827108 375.305045,220.896154 C374.400145,217.988381 373.591885,215.264532 372.959333,213.127494 C372.755175,212.432125 373.009088,211.683712 373.594732,211.254649 C374.180376,210.825587 374.972674,210.80751 375.577393,211.209414 L378.854361,213.390245 C379.597138,213.886945 380.184727,214.581987 380.54995,215.395908 C380.701654,215.71391 380.813769,216.049217 380.883797,216.39436 L388,250.71835 L378.388733,270.83629 L378.388733,289.999569 L379.056426,300.290635 L379.407843,305.677023 L379.54841,307.866612 Z" id="Path" fill="#2F2E41" fill-rule="nonzero"></path>
                            <polygon id="Path" fill="#2F2E41" fill-rule="nonzero" points="371.947074 136.354755 349.841811 125 319.315789 129.644813 313 157 328.721571 156.407616 333.114052 146.356971 333.114052 156.241575 340.368127 155.9683 344.578947 139.967867 347.210379 157 373 156.484582"></polygon>
                            <ellipse id="Oval" fill="#FFB8B8" fill-rule="nonzero" cx="320" cy="159" rx="3" ry="5"></ellipse>
                            <path d="M894,397.000014 C894,439.134626 865.541423,474.793732 826.324891,486.726478 C820.53469,488.499711 814.590376,489.723636 808.570684,490.38204 C804.894895,490.794768 801.19886,491 797.499977,491 C796.123924,491 794.756836,490.973862 793.398651,490.90427 L793.380844,490.90427 C779.583987,490.367604 766.057187,486.914811 753.690727,480.773141 C745.003683,476.457898 737.015508,470.859639 729.9946,464.166463 C711.51106,446.714037 701.024818,422.422492 701,397.000014 C701,357.163143 726.438439,323.114254 762.357832,309.432053 C766.655728,307.788711 771.066192,306.456506 775.555119,305.445739 C792.095667,301.707875 809.317181,302.262153 825.583197,307.055904 C826.816336,307.404078 828.040369,307.795754 829.24671,308.213511 C829.255658,308.213511 829.264596,308.222223 829.273544,308.222223 C832.175467,309.197954 835.026406,310.319254 837.815524,311.581861 C838.771537,311.999627 839.727663,312.443518 840.665895,312.913586 C842.542148,313.818754 844.382774,314.790664 846.187774,315.829316 C846.884766,316.220992 847.572775,316.621318 848.251854,317.039146 C859.336517,323.710807 868.956245,332.557314 876.53162,343.045823 C883.42181,352.581814 888.425951,363.347075 891.274673,374.762118 C893.092098,382.034821 894.007409,389.503622 894,397.000014 L894,397.000014 Z" id="Path" fill="#86FFD9" fill-rule="nonzero"></path>
                            <path d="M901.610491,244.700199 L914.857204,240.682535 L916,229.333927 C916,229.333927 883.781102,217.495155 873.480641,238.4358 C869.843683,245.829645 865.259914,250.270126 860.85128,252.920983 C854.689568,256.48067 847.257234,257.103328 840.587845,254.618588 C818.258434,246.685868 813,269.244634 813,269.244634 C813,269.244634 814.930266,272.455896 828.694517,273.245451 C835.544487,273.638393 841.14946,278.652685 845.052111,283.591252 C853.408927,294.166396 870.574632,291.110151 874.789616,278.417427 C874.857527,278.212845 874.924416,278.005657 874.990282,277.795863 C881.574577,256.814297 911.550585,273.519721 911.550585,273.519721 L913.464237,254.515778 L901.610491,244.700199 Z" id="Path" fill="#2F2E41" fill-rule="nonzero"></path>
                            <ellipse id="Oval" fill="#2F2E41" fill-rule="nonzero" cx="811" cy="280.5" rx="16" ry="15.5"></ellipse>
                            <ellipse id="Oval" fill="#2F2E41" fill-rule="nonzero" cx="803" cy="323" rx="43" ry="42"></ellipse>
                            <ellipse id="Oval" fill="#A0616A" fill-rule="nonzero" cx="802.5" cy="338" rx="29.5" ry="29"></ellipse>
                            <path d="M791,359.444439 L796.333338,387 L823,383.555553 C823,383.555553 818.555558,362.027774 821.222227,356 L791,359.444439 Z" id="Path" fill="#A0616A" fill-rule="nonzero"></path>
                            <path d="M842.900743,298.030187 C842.900743,298.030187 821.459774,282.293448 812.526033,288.413289 C803.592291,294.53313 836.647151,314.641217 840.220619,312.892671 C843.794088,311.144125 842.900743,298.030187 842.900743,298.030187 Z" id="Path" fill="#A0616A" fill-rule="nonzero"></path>
                            <path d="M864,417.119915 C864.002123,417.265092 863.99616,417.410305 863.981474,417.554763 L863.981474,417.563467 C863.428351,430.069597 839.813218,468.344633 826.190149,486.729823 C820.408829,488.501669 814.473632,489.724635 808.463172,490.382524 C804.79302,490.794928 801.102654,491 797.409444,491 C796.035502,491 794.67051,490.973883 793.314409,490.904345 L793.296585,490.904345 C780.753047,486.955916 765.854105,481.772605 754.987697,477.685057 C749.866777,475.745616 745.638006,474.058398 742.979424,472.85829 C741.989632,472.451906 741.039864,471.954022 740.142455,471.371105 C735.65492,467.866228 745.53095,465.239804 750.018484,464.370117 C754.505905,463.491726 748.225259,453.872966 748.225259,453.872966 C732.06847,437.244514 751.81171,423.25119 751.81171,423.25119 C751.81171,423.25119 759.885581,406.622737 759.885581,402.248227 C759.907388,401.923664 760.028963,401.613797 760.233638,401.361105 C763.614805,396.69958 790.40604,388.254877 790.40604,388.254877 L790.40604,374.252954 L793.180604,373.800707 L820.48031,369.36531 L822.710676,369 L827.19821,376.000988 L846.950375,378.627465 C846.950375,378.627465 864,401.378567 864,417.119915 Z" id="Path" fill="#D0CDE1" fill-rule="nonzero"></path>
                            <path d="M779,417.715362 C779,417.715362 767.104376,449.495982 756.240337,475.250762 C755.863624,476.149924 755.486796,477.040371 755.118952,477.922227 C754.670398,478.959694 754.230828,479.988448 753.791258,481 C745.069339,476.713644 737.049095,471.15286 730,464.504489 C734.880306,449.210701 742.622338,424.908375 745.609655,415.113076 C748.902109,404.31493 756.518488,402.335141 760.394044,402.049833 C761.179099,401.978036 761.969431,401.983833 762.753324,402.067139 L779,417.715362 Z" id="Path" fill="#D0CDE1" fill-rule="nonzero"></path>
                            <path d="M844.586818,381.75753 L847.26442,379.133022 C847.26442,379.133022 881.180682,343.264777 880.28816,334.516468 C880.28816,334.516468 862.437493,312.645583 840.124162,318.769427 C840.124162,318.769427 830.306293,295.148878 845.479357,296.023715 C860.652422,296.898551 916.882025,293.399206 915.989493,318.769427 C915.096962,344.139648 861.544962,422 861.544962,422 L844.586818,381.75753 Z" id="Path" fill="#D0CDE1" fill-rule="nonzero"></path>
                            <path d="M808,491.37085 C804.337338,491.791051 800.654502,492.001096 796.968829,492 C795.59769,492 794.235484,491.973389 792.88215,491.902536 L792.864406,491.902536 C779.11682,491.356152 765.638328,487.840835 753.316031,481.587948 C749.39765,479.600364 745.616825,477.341368 742,474.826761 L742.649925,473.515301 L742.649925,473.506433 L743.406784,472 L755.746606,475.695153 L808,491.37085 Z" id="Path" fill="#2F2E41" fill-rule="nonzero"></path>
                            <ellipse id="Oval" fill="#2F2E41" fill-rule="nonzero" transform="translate(803.376523, 315.567135) rotate(-72.248620) translate(-803.376523, -315.567135) " cx="803.376523" cy="315.567135" rx="18.4157927" ry="29.5372136"></ellipse>
                            <path d="M137,596.999829 C137,601.882342 137.368787,606.757881 138.108283,611.584062 C141.66327,634.384656 153.386251,655.115024 171.092725,669.912198 C171.576497,670.316827 172.069064,670.721456 172.570428,671.117289 C173.608338,671.952894 174.663841,672.765084 175.736934,673.553859 C177.285004,674.697375 178.868257,675.791046 180.486694,676.834871 C206.300645,693.467516 238.554618,696.618713 267.09944,685.296893 C267.767925,685.033005 268.43641,684.76032 269.096098,684.478839 C270.151601,684.030229 271.189511,683.564026 272.227421,683.071434 C274.857381,681.848751 277.422838,680.50292 279.923791,679.033941 C282.500976,677.529777 284.993133,675.911262 287.400265,674.178394 C288.499746,673.386729 289.564044,672.586268 290.628342,671.750621 L290.645934,671.741825 C304.719525,660.688523 315.394918,645.894059 321.449005,629.053476 L321.449005,629.044679 C336.348683,587.322729 320.475237,540.838109 283.16946,516.944881 C282.333854,516.417104 281.489453,515.889327 280.636255,515.396735 C279.75667,514.851366 278.859493,514.341182 277.953521,513.84859 C265.760567,507.082143 252.217472,503.107345 238.301824,502.211111 C236.217207,502.07037 234.114998,502 231.995198,502 C231.889648,502 231.784098,502 231.678548,502.008796 C228.828692,502.008796 226.01402,502.14074 223.234531,502.404629 C174.372971,506.929291 137,547.926846 137,596.999829 L137,596.999829 Z" id="Path" fill="#86FFD9" fill-rule="nonzero"></path>
                            <path d="M329,629.528963 C329,629.528963 356.616837,601.317074 363.981329,618.608223 C371.34582,635.899372 336.364492,645 336.364492,645 L329,629.528963 Z" id="Path" fill="#FFB8B8" fill-rule="nonzero"></path>
                            <path d="M173,670.865306 C174.031068,671.710995 175.079612,672.532985 176.145631,673.331277 C177.683495,674.488592 179.256311,675.595459 180.864078,676.65188 C206.507849,693.485223 238.549187,696.674445 266.905825,685.216009 C267.569903,684.948937 268.233981,684.672962 268.88932,684.388084 C269.937864,683.934061 270.968932,683.462232 272,682.963697 L269.579612,679.420533 C267.824679,677.747028 265.858886,676.318999 263.734033,675.174078 C247.175781,666.013486 215.990344,666.298364 194.888402,667.802873 C191.882577,668.016531 189.08646,668.256897 186.569955,668.497262 C184.99714,668.639701 183.529179,668.791042 182.192285,668.933481 C181.650538,668.995797 181.135004,669.049212 180.645683,669.102627 C175.935975,669.636772 173.113645,670.055186 173.113645,670.055186 L173,670.865306 Z" id="Path" fill="#2F2E41" fill-rule="nonzero"></path>
                            <circle id="Oval" fill="#FFB8B8" fill-rule="nonzero" cx="253.5" cy="516.5" r="26.5"></circle>
                            <path d="M235.836149,525 L216.519148,545.307699 L211,576.692311 L259.752402,585 L256.072975,556.384621 C256.072975,556.384621 256.992828,542.538467 260.672263,539.769234 C264.351698,537 235.836149,525 235.836149,525 Z" id="Path" fill="#FFB8B8" fill-rule="nonzero"></path>
                            <g id="Group"></g>
                            <path d="M179,672.618957 C180.625143,672.098162 182.275962,671.660758 183.945967,671.308466 C188.148787,670.396869 192.423254,669.852435 196.720845,669.681346 C206.891165,669.146807 217.037849,671.106664 226.273219,675.389458 C239.779853,681.853961 255.807961,683.613009 266.828387,683.947229 C267.630674,683.973614 268.406512,683.991205 269.147084,684 C270.205045,683.551443 271.245374,683.085295 272.285702,682.592761 C274.921788,681.370223 277.49322,680.024551 280,678.555745 L279.964735,675.301506 L279.382856,610.920337 L279.382856,610.911541 L279.10955,580.136991 L261.503317,559.793597 L256.980534,554.709947 L254.829347,556.636105 L242.036837,568.12269 L223.390276,550.892812 L217.007245,545 L186.388094,647.825171 L182.438373,661.088395 L180.110859,668.89857 L179.749389,670.094723 L179.749389,670.103518 L179,672.618957 Z" id="Path" fill="#575A89" fill-rule="nonzero"></path>
                            <path d="M250.002996,583.198942 C250.046851,587.817384 250.430689,592.426123 251.151332,596.986975 C254.283156,617.202975 256.971304,650.811306 263.62643,675.081058 C264.496381,678.281851 265.444628,681.306777 266.47117,684.129455 L266.784352,685 C267.445515,684.736198 268.106678,684.463603 268.759141,684.182215 C269.803082,683.733752 270.829625,683.267702 271.856167,682.775273 C274.457321,681.552992 276.994678,680.207603 279.468239,678.739107 C282.017195,677.235438 284.482057,675.617455 286.862823,673.885157 L286.584438,672.77719 L286.584438,672.768397 L282.252082,655.23438 C282.252082,655.23438 285.035926,640.558215 287.263,624.140959 L287.263,624.132165 C289.820656,605.340694 291.647554,584.289322 287.741473,580.341091 L257.093097,552 L257.084398,552.008793 C256.129512,553.545996 255.308667,555.164212 254.631136,556.845157 C252.543253,561.848595 249.898602,570.677157 250.002996,583.198942 Z" id="Path" fill="#D0CDE1" fill-rule="nonzero"></path>
                            <path d="M154,650.969385 C158.881034,658.09737 164.707492,664.523369 171.318232,670.069657 C171.800512,670.474734 172.29156,670.879812 172.791377,671.276083 C173.826087,672.112614 174.878334,672.925704 175.948118,673.715352 C177.491414,674.860136 179.069784,675.955018 180.68323,677 C181.875776,675.335661 183.077092,673.644904 184.278407,671.945341 C184.988674,670.950301 185.69894,669.946414 186.409207,668.93368 C187.531604,667.330983 188.654053,665.71948 189.75886,664.099171 C189.89916,663.905438 190.030691,663.711706 190.162221,663.517973 C191.565217,661.483781 192.950676,659.440783 194.30106,657.406591 C204.262331,642.462764 212.52247,628.117746 213.469492,619.549482 C214.609426,609.290461 216.915601,593.422002 219.256851,578.26683 C220.765071,568.421692 222.290829,558.875959 223.509682,551.382031 C224.982828,542.276599 226,536.182829 226,536.182829 C226,536.182829 177.684326,531.330708 170.91487,536.094768 L170.906102,536.094768 C170.51309,536.321305 170.235416,536.705933 170.143223,537.151492 C169.40665,542.311823 173.352576,590.2694 174.983559,609.642659 L174.983559,609.651465 C175.404457,614.618064 175.676288,617.700173 175.676288,617.700173 C175.676288,617.700173 172.91414,621.40751 168.862989,627.351578 C164.732919,633.418974 159.252466,641.811118 154,650.969385 Z" id="Path" fill="#D0CDE1" fill-rule="nonzero"></path>
                            <path d="M284.831519,606 L289.448065,641.921056 L330.073675,624.421052 L343,651.131582 L276.521696,676 C276.521696,676 264.518718,612.447366 284.831519,606 Z" id="Path" fill="#D0CDE1" fill-rule="nonzero"></path>
                            <path d="M280.239029,520.51485 C280.239029,520.51485 283.839038,516.624405 283.474668,511.754023 C283.234571,508.983521 283.411657,506.192642 284,503.474785 C284,503.474785 282.873265,495.503251 281.209545,490.882618 C279.545825,486.261984 280.948356,484.653958 273.796676,482.131381 C266.644995,479.608804 271.197853,470.486528 250.112565,477.757548 C248.472717,479.414677 245.997549,479.921506 243.839092,479.042137 C239.946312,477.615401 237.600383,482.96739 237.600383,482.96739 C237.600383,482.96739 235.172255,480.973733 233.809759,483.046457 C232.447262,485.119182 225.857634,480.395001 223.441264,495.47405 C221.024894,510.553099 229.320232,524 229.320232,524 C229.320232,524 230.484178,499.869933 244.177824,499.432488 C257.87147,498.995043 273.357182,493.804163 275.277873,503.965403 C276.281635,509.656482 277.94665,515.210647 280.239029,520.51485 Z" id="Path" fill="#2F2E41" fill-rule="nonzero"></path>
                            <path d="M171,669.663639 C171.482269,670.067022 171.973306,670.470404 172.473111,670.865017 C173.507797,671.698049 174.560019,672.507737 175.629779,673.294081 C177.173038,674.434075 178.751372,675.524376 180.36478,676.564986 C188.133727,681.591918 196.601759,685.445075 205.495359,688 C207.669952,682.4228 202.461451,675.486376 196.665503,669.909176 C195.928947,669.198873 195.174854,668.506107 194.438298,667.848418 C192.684594,666.296273 190.957196,664.893204 189.440242,663.718133 C189.370094,663.665518 189.308714,663.621672 189.247334,663.569057 C186.380028,661.359223 184.301889,660 184.301889,660 L182.4605,661.341685 L171,669.663639 Z" id="Path" fill="#FFB8B8" fill-rule="nonzero"></path>
                            <path d="M138,611.271026 C141.573422,633.983013 153.357194,654.63282 171.155488,669.372492 C171.641768,669.775548 172.13689,670.178605 172.640854,670.572899 C173.684146,671.405257 174.745122,672.214291 175.82378,673 L180.014634,670.038411 L180.014634,670.029649 L181.942073,668.671524 L189.554573,663.282834 L190.155793,662.853491 L196,658.717782 L194.328963,656.772596 L186.672256,647.844019 L168.679878,626.867558 L164.391768,621.873163 L174.85122,609.255743 L174.85122,609.246981 L185.770427,596.077549 L176.478049,537.117397 C174.718296,536.204326 172.721762,535.837917 170.74878,536.065946 L170.739939,536.065946 C168.635671,536.425192 166.487195,537.862176 165.320122,541.717498 C163.207012,548.70089 146.142988,591.135726 138,611.271026 Z" id="Path" fill="#D0CDE1" fill-rule="nonzero"></path>
                        </g>
                    </g>
                </g>
            </g>
        </g>
    </g>
</svg>