<?xml version="1.0" encoding="utf-8"?>
<!-- Generator: Adobe Illustrator 22.1.0, SVG Export Plug-In . SVG Version: 6.00 Build 0)  -->
<svg version="1.1" id="Camada_1" xmlns="http://www.w3.org/2000/svg" xmlns:xlink="http://www.w3.org/1999/xlink" x="0px" y="0px"
	 viewBox="0 0 769.1 155.1" style="enable-background:new 0 0 769.1 155.1;" xml:space="preserve">
<style type="text/css">
	.st0{fill:#F2DF00;}
	.st1{fill:#131314;}
</style>
<path class="st0" d="M758,155.1H626.2c-6.4,0-11.6-5.2-11.6-11.6V12c0-6.4,5.2-11.6,11.6-11.6H758c6.4,0,11.6,5.2,11.6,11.6v131.4
	C769.6,149.8,764.4,155.1,758,155.1z"/>
<g>
	<path class="st1" d="M668.3,46.6h13v40.8c0,5.3-0.5,9.4-1.4,12.3c-1.3,3.8-3.5,6.8-6.9,9c-3.3,2.3-7.7,3.4-13.1,3.4
		c-6.4,0-11.2-1.8-14.7-5.3S640,98,640,91.2l12.3-1.4c0.1,3.7,0.7,6.3,1.6,7.8c1.4,2.3,3.5,3.5,6.4,3.5s5-0.8,6.2-2.5
		s1.8-5.1,1.8-10.3V46.6z"/>
	<path class="st1" d="M691.8,90.1l12.7-1.2c0.8,4.2,2.3,7.4,4.6,9.4s5.5,3,9.4,3c4.2,0,7.3-0.9,9.5-2.7c2.1-1.8,3.2-3.8,3.2-6.2
		c0-1.5-0.4-2.8-1.3-3.9c-0.9-1.1-2.5-2-4.7-2.8c-1.5-0.5-5-1.5-10.4-2.8c-7-1.7-11.9-3.9-14.7-6.4c-4-3.5-5.9-7.9-5.9-13
		c0-3.3,0.9-6.4,2.8-9.2c1.9-2.9,4.5-5,8-6.5s7.7-2.2,12.7-2.2c8.1,0,14.2,1.8,18.3,5.3s6.2,8.3,6.4,14.2l-13,0.6
		c-0.6-3.3-1.8-5.7-3.6-7.1c-1.8-1.5-4.6-2.2-8.2-2.2c-3.8,0-6.7,0.8-8.9,2.3c-1.4,1-2.1,2.3-2.1,4c0,1.5,0.6,2.8,1.9,3.9
		c1.6,1.4,5.6,2.8,12,4.3s11,3,14,4.6s5.4,3.8,7.1,6.5c1.7,2.8,2.6,6.2,2.6,10.3c0,3.7-1,7.1-3.1,10.4c-2.1,3.2-5,5.6-8.7,7.2
		c-3.8,1.6-8.4,2.4-14,2.4c-8.1,0-14.4-1.9-18.8-5.6C695.2,102.8,692.6,97.3,691.8,90.1z"/>
</g>
<g fill="#ffffff">
	<path d="M99.2,59.5h13l-25.2,66H75L57.3,77.7l-17.6,47.8H27.6l-25.2-66h13.8l18,50.4l18.2-50.4h10.5l18.2,50.4L99.2,59.5z"/>
	<path d="M135,122.2c-4.9-2.8-8.7-6.8-11.3-11.9c-2.7-5.2-4-11.2-4-18.1c0-6.9,1.3-12.9,4-18.1c2.7-5.2,6.4-9.2,11.3-12
		c4.9-2.8,10.6-4.2,17-4.2c6.4,0,12,1.4,16.9,4.2c4.9,2.8,8.7,6.8,11.3,12c2.7,5.2,4,11.2,4,18.1c0,6.9-1.3,12.9-4,18.1
		c-2.7,5.2-6.4,9.1-11.3,11.9c-4.9,2.8-10.5,4.2-16.9,4.2C145.5,126.4,139.9,125,135,122.2z M165.9,109.9c3.2-4,4.8-9.9,4.8-17.7
		c0-7.6-1.6-13.5-4.9-17.6c-3.3-4.1-7.9-6.2-13.8-6.2c-6,0-10.7,2.1-14,6.2c-3.3,4.1-5,10-5,17.6c0,7.8,1.6,13.7,4.9,17.7
		c3.3,4,7.9,6,14,6C158,115.9,162.7,113.9,165.9,109.9z"/>
	<path d="M238.9,58.8l-0.3,12.1c-2.4-0.9-4.9-1.3-7.7-1.3c-6,0-10.5,1.8-13.6,5.4c-3,3.6-4.5,8.2-4.5,13.7v36.8h-13.1V78.1
		c0-6.9-0.4-13.1-1-18.6H211l1.2,11.9c1.7-4.4,4.5-7.7,8.1-10c3.7-2.3,7.8-3.5,12.3-3.5C234.6,57.9,236.7,58.2,238.9,58.8z"/>
	<path d="M310.5,125.5h-16.9l-31.6-31.2v31.2H249V29.1h13.1v60.3l29.4-29.7h16.4l-31.6,31.7L310.5,125.5z"/>
	<path d="M377.9,59.5v66h-13.1v-11.3c-1.9,3.9-4.8,6.9-8.6,9s-8.2,3.1-13.3,3.1c-5.9,0-11-1.4-15.4-4.2c-4.4-2.8-7.8-6.7-10.3-11.9
		c-2.4-5.1-3.7-11.1-3.7-17.9c0-6.8,1.2-12.8,3.7-18.1c2.5-5.2,6-9.3,10.4-12.2c4.5-2.9,9.5-4.3,15.2-4.3c5.1,0,9.5,1.1,13.2,3.2
		c3.8,2.1,6.6,5.2,8.6,9.1V59.5H377.9z M359.9,109.7c3.3-4.1,4.9-10,4.9-17.5c0-7.6-1.6-13.5-4.9-17.6c-3.3-4.1-7.9-6.2-14-6.2
		c-5.9,0-10.6,2.1-14,6.4c-3.4,4.2-5,10.1-5,17.6c0,7.4,1.7,13.2,5,17.3c3.4,4.1,8.1,6.2,14.1,6.2
		C352,115.9,356.6,113.9,359.9,109.7z"/>
	<path d="M447.6,62.1c4.5,2.8,7.9,6.8,10.4,11.9c2.4,5.2,3.7,11.1,3.7,18c0,6.8-1.2,12.8-3.7,18c-2.5,5.2-6,9.2-10.4,12.1
		s-9.5,4.3-15.2,4.3c-5.1,0-9.5-1.1-13.3-3.2c-3.8-2.1-6.7-5.2-8.6-9.2v11.5h-13.1V29.1h13.1v41.3c1.9-3.9,4.8-7,8.6-9.2
		c3.8-2.2,8.2-3.3,13.3-3.3C438,57.9,443.1,59.3,447.6,62.1z M443.1,109.6c3.3-4.2,5-10.1,5-17.6c0-7.4-1.7-13.2-5-17.3
		c-3.3-4.1-8-6.2-13.9-6.2c-6,0-10.7,2.1-14,6.2c-3.3,4.1-4.9,10-4.9,17.6c0,7.6,1.6,13.5,4.9,17.6c3.3,4.1,7.9,6.2,14,6.2
		C435.2,115.9,439.8,113.8,443.1,109.6z"/>
	<path d="M477.1,125.5V29.1h13.1v96.4H477.1z"/>
	<path d="M565.9,92.8h-47.2c0.4,15.5,7.5,23.2,21.1,23.2c7.6,0,14.5-2.5,20.8-7.5l4.1,9.4c-3,2.6-6.7,4.7-11.3,6.2
		c-4.6,1.5-9.2,2.3-13.8,2.3c-10.6,0-18.9-3-24.9-9.1c-6-6.1-9-14.4-9-25c0-6.7,1.3-12.7,4-18c2.7-5.2,6.4-9.3,11.2-12.2
		c4.8-2.9,10.3-4.3,16.4-4.3c8.9,0,15.9,2.9,21,8.6c5.1,5.8,7.7,13.8,7.7,24V92.8z M525.3,72.2c-3.1,3-5.2,7.2-6,12.7h35
		c-0.5-5.6-2.2-9.8-5.1-12.8c-2.9-2.9-6.8-4.4-11.7-4.4C532.5,67.7,528.4,69.2,525.3,72.2z"/>
</g>
</svg>
