<svg xmlns="http://www.w3.org/2000/svg" viewBox="0 0 468.29 468.29">
  <path fill="#fcd462" d="M451.8 54.12v280.3a24.05 24.05 0 01-24.05 24.05H40.55a24.05 24.05 0 01-24.06-24.06V12.03C16.49 5.35 21.84 0 28.5 0h90.13c3.36 0 6.61 1.44 8.9 3.97l30.84 34.16a12.07 12.07 0 008.97 3.96h272.43c6.61 0 12.03 5.36 12.03 12.03z"/>
  <g fill="#f6c358">
    <path d="M16.49 319.32v15.1a24.05 24.05 0 0024.05 24.05h387.21a24.05 24.05 0 0024.06-24.06v-15.1H16.49zM16.48 110.02H451.8v24.71H16.48z"/>
  </g>
  <path fill="#dc8744" d="M340.9 330.35l99.92 96.6a24.05 24.05 0 11-33.44 34.58l-99.92-96.6 33.44-34.58z"/>
  <circle cx="255.02" cy="280.79" r="115.53" fill="#e56353"/>
  <circle cx="255.02" cy="280.79" r="96.22" fill="#e1e6e9"/>
  <path fill="#ebf0f3" d="M261.74 207.4c29.95 3.72 52.21 27.8 51.68 32.13s-18.9-13.86-48.86-17.57-60.16 8.44-59.63 4.11c.54-4.33 26.85-22.38 56.8-18.67z"/>
  <g fill="#e1e6e9">
    <path d="M430.78 417.27l-33.44 34.6-8.64-8.37 33.43-34.6zM409.15 396.32l-33.43 34.6-8.65-8.37 33.43-34.59z"/>
  </g>
</svg>