<?xml version="1.0" encoding="UTF-8"?>
<svg width="20px" height="28px" viewBox="0 0 20 28" version="1.1" xmlns="http://www.w3.org/2000/svg" xmlns:xlink="http://www.w3.org/1999/xlink">
    <!-- Generator: Sketch 57.1 (83088) - https://sketch.com -->
    <title>placeholder</title>
    <desc>Created with Sketch.</desc>
    <g id="Page-1" stroke="none" stroke-width="1" fill="none" fill-rule="evenodd">
        <g id="Desktop-HD" transform="translate(-303.000000, -488.000000)" fill="#111111" fill-rule="nonzero">
            <g id="earch" transform="translate(303.000000, 488.000000)">
                <g id="Department">
                    <g id="placeholder">
                        <path d="M10,0 C15.514,0 20,4.41590625 20,9.84375 C20,11.6232266 19.5122778,13.3671563 18.5895,14.8870313 L18.5895,14.8870313 L10.8537778,27.6012188 C10.7045,27.8466563 10.4360556,27.9977578 10.1454444,28 L10.1454444,28 C9.85072222,28 9.58283333,27.8534375 9.43077778,27.6122109 L9.43077778,27.6122109 L1.49272222,15.0200312 C0.516055556,13.4673437 0,11.6776406 0,9.84375 C0,4.41590625 4.486,0 10,0 Z M10,1.6296875 C5.405,1.6296875 1.65555556,5.32054688 1.65555556,9.84375 C1.65555556,11.3722656 2.09633333,12.8632656 2.90927778,14.1556406 L2.90927778,14.1556406 L10.1262222,25.6039219 L17.1592222,14.0447344 C17.9271667,12.7798125 18.3388889,11.3269297 18.3388889,9.84375 C18.3388889,5.32054688 14.595,1.6296875 10,1.6296875 Z M10,5 C12.757,5 15,7.243 15,10 C15,12.7092778 12.8279444,15 10,15 C7.2065,15 5,12.7393889 5,10 C5,7.243 7.243,5 10,5 Z M10,6.65555556 C8.162,6.65555556 6.65555556,8.162 6.65555556,10 C6.65555556,11.8426111 8.15238889,13.3444444 10,13.3444444 C11.8768889,13.3444444 13.3388889,11.8157222 13.3388889,10 C13.3388889,8.162 11.838,6.65555556 10,6.65555556 Z" id="Combined-Shape"></path>
                    </g>
                </g>
            </g>
        </g>
    </g>
</svg>